<svg xmlns="http://www.w3.org/2000/svg" width="250" height="189.703" viewBox="0 0 250 189.703">
  <g id="BORN_IDENTITIES" data-name="BORN IDENTITIES" transform="translate(-412.592 355.682)" style="isolation: isolate">
    <g id="Group_660" data-name="Group 660" transform="translate(473.238 -355.682)" style="isolation: isolate">
      <path id="Path_994" data-name="Path 994" d="M435.14-268.666H424.556v-86.873H435.14c9.854,0,15.7,3.771,15.7,18.862v8.881c0,9.124-2.438,13.747-5.845,16.059,3.533,2.19,6.088,6.575,6.088,15.212v9C451.082-272.072,444.994-268.666,435.14-268.666Zm-1.7-78.235v31.636h1.587c4.375,0,6.935-2.068,6.935-11.071V-336.92c0-7.543-2.195-9.981-6.575-9.981Zm0,39.427v30.293h2.312c4.015,0,6.453-1.708,6.453-10.346v-9.849c0-8.521-2.555-10.1-6.7-10.1Z" transform="translate(-424.556 356.264)" fill="#fff"/>
      <path id="Path_995" data-name="Path 995" d="M457.609-338.777v54.507c0,12.536-4.5,16.91-13.261,16.91-9,0-13.266-4.375-13.266-16.91v-54.507c0-12.526,4.506-16.905,13.266-16.905C453.351-355.682,457.609-351.3,457.609-338.777Zm-9-1.217c0-5.348-.978-7.177-4.263-7.177-2.92,0-4.258,1.83-4.258,7.177v56.946c0,5.348.973,7.178,4.258,7.178,2.92,0,4.263-1.83,4.263-7.178Z" transform="translate(-397.997 355.682)" fill="#fff"/>
      <path id="Path_996" data-name="Path 996" d="M450.021-297.747h-3.406v29.081h-9v-86.873h11.066c10.346,0,15.455,4.75,15.455,21.782v15.815c0,10.949-2.8,16.667-7.664,18.857,1.582,1.46,2.676,4.02,3.528,7.786.73,3.041,4.744,22.633,4.744,22.633h-9.732ZM446.615-346.9v41h2.676c4.015,0,5.84-3.285,5.84-11.927v-16.054c0-8.516-1.338-13.022-5.84-13.022Z" transform="translate(-371.431 356.264)" fill="#fff"/>
      <path id="Path_997" data-name="Path 997" d="M456.791-355.539,467.619-278.4c-1.211-14.6-2.8-39.3-2.8-50.006v-27.134h8.273v86.873H461.171L450.709-344.1c.852,14.234,1.587,33.577,1.587,42.1v33.334h-8.156v-86.873Z" transform="translate(-344.872 356.264)" fill="#fff"/>
    </g>
    <g id="Group_661" data-name="Group 661" transform="translate(412.592 -254.301)" style="isolation: isolate">
      <path id="Path_998" data-name="Path 998" d="M421.6-335.539v86.873h-9.008v-86.873Z" transform="translate(-412.592 336.264)" fill="#c8102e"/>
      <path id="Path_999" data-name="Path 999" d="M415.664-248.666v-86.873h9.854c11.557,0,16.667,5.231,16.667,22.75v42.463c0,16.667-6.2,21.66-15.694,21.66Zm17.524-22.025v-41.855c0-9.241-1.222-14.356-5.845-14.356h-2.676v69.72h2.676C431.484-257.182,433.188-261.318,433.188-270.691Z" transform="translate(-400.092 336.264)" fill="#c8102e"/>
      <path id="Path_1000" data-name="Path 1000" d="M422.192-335.539H443v8.521h-11.8v29.928h10.219v7.908H431.195v32H443v8.516h-20.8Z" transform="translate(-373.529 336.264)" fill="#c8102e"/>
      <path id="Path_1001" data-name="Path 1001" d="M439.931-335.539,450.764-258.4c-1.222-14.6-2.8-39.3-2.8-50.006v-27.134h8.273v86.873H444.311L433.853-324.1c.852,14.234,1.576,33.577,1.576,42.1v33.334h-8.151v-86.873Z" transform="translate(-352.83 336.264)" fill="#c8102e"/>
      <path id="Path_1002" data-name="Path 1002" d="M442.81-326.774h-9v-8.764h27.008v8.764h-9v78.109h-9Z" transform="translate(-326.267 336.264)" fill="#c8102e"/>
      <path id="Path_1003" data-name="Path 1003" d="M448.954-335.539v86.873h-9v-86.873Z" transform="translate(-301.267 336.264)" fill="#c8102e"/>
      <path id="Path_1004" data-name="Path 1004" d="M451.55-326.774h-9.008v-8.764h27.013v8.764h-9.008v78.109h-9Z" transform="translate(-290.724 336.264)" fill="#c8102e"/>
      <path id="Path_1005" data-name="Path 1005" d="M457.688-335.539v86.873h-9v-86.873Z" transform="translate(-265.724 336.264)" fill="#c8102e"/>
      <path id="Path_1006" data-name="Path 1006" d="M451.758-335.539h20.808v8.521h-11.8v29.928H470.98v7.908H460.766v32h11.8v8.516H451.758Z" transform="translate(-253.224 336.264)" fill="#c8102e"/>
      <path id="Path_1007" data-name="Path 1007" d="M483.175-264.269c0,12.292-5.348,16.91-13.139,16.91-9,0-13.382-4.74-13.382-16.54v-12.652h9v13.742c0,5.109,1.217,6.939,4.38,6.939,3.041,0,4.136-2.555,4.136-7.548v-4.131c0-6.575-1.095-9.494-8.273-19.835-5.84-8.638-9-15.085-9-25.066v-5.591c0-12.292,4.866-17.64,13.26-17.64,8.029,0,13.144,3.4,13.144,17.64V-306h-8.881v-13.261c0-5.475-.857-7.913-4.263-7.913-3.041,0-4.38,2.195-4.38,7.913v5.11c0,8.267,1.825,12.044,7.665,20.438,6.934,10.219,9.732,14.842,9.732,24.818Z" transform="translate(-233.302 335.682)" fill="#c8102e"/>
    </g>
  </g>
</svg>
